<svg xmlns="http://www.w3.org/2000/svg" xmlns:xlink="http://www.w3.org/1999/xlink" width="33" height="33" viewBox="0 0 33 33">
  <defs>
    <clipPath id="clip-Behance">
      <rect width="33" height="33"/>
    </clipPath>
  </defs>
  <g id="Behance" clip-path="url(#clip-Behance)">
    <g id="Group_12890" data-name="Group 12890" transform="translate(-255.33 -305.742)">
      <path id="Path_12656" data-name="Path 12656" d="M276.241,319.859a2,2,0,0,0-2.068,1.808h3.8A1.687,1.687,0,0,0,276.241,319.859Z" transform="translate(1.469 1.025)" fill="#243546" style="isolation: isolate"/>
      <path id="Path_12657" data-name="Path 12657" d="M267.267,321.686q-1.5,0-3,0c-.1,0-.2.011-.307.018v3.105c1.22,0,2.417.032,3.611-.014a1.055,1.055,0,0,0,1.012-1,3.225,3.225,0,0,0-.058-1.179A1.164,1.164,0,0,0,267.267,321.686Z" transform="translate(0.695 1.213)" fill="#243546" style="isolation: isolate"/>
      <path id="Path_12658" data-name="Path 12658" d="M267.457,319.836a.637.637,0,0,0,.642-.519,4.873,4.873,0,0,0,.086-1.289.851.851,0,0,0-.968-.8q-1.469,0-2.937,0c-.1,0-.2.01-.309.016v2.6C265.144,319.844,266.3,319.856,267.457,319.836Z" transform="translate(0.685 0.858)" fill="#243546" style="isolation: isolate"/>
      <path id="Path_12659" data-name="Path 12659" d="M271.83,305.742a16.5,16.5,0,1,0,16.5,16.5A16.5,16.5,0,0,0,271.83,305.742Zm8.236,10.8c0,.462.009.907-.01,1.352,0,.063-.135.174-.207.175q-2.378.014-4.756,0c-.075,0-.21-.108-.214-.17-.018-.444-.01-.89-.01-1.357Zm-8.428,10.272a3.266,3.266,0,0,1-2.014,1.373,5.911,5.911,0,0,1-1.442.19c-2.052.02-4.106.009-6.158.009h-.365V316.2c0-.411,0-.411.41-.411,2.022,0,4.045,0,6.067,0a3.957,3.957,0,0,1,2.42.672,2.779,2.779,0,0,1,1.177,2.045,5.31,5.31,0,0,1-.044,1.389,1.922,1.922,0,0,1-1.359,1.538c-.045.016-.087.041-.186.089.208.056.363.088.512.138a2.093,2.093,0,0,1,1.36,1.5A4.289,4.289,0,0,1,271.638,326.815Zm10-2.348c-1.94-.01-3.881-.005-5.823-.005-.391,0-.4.012-.359.391a1.9,1.9,0,0,0,1.69,1.763,3.11,3.11,0,0,0,1.733-.181,1.237,1.237,0,0,0,.76-.892.259.259,0,0,1,.308-.241c.629.012,1.257,0,1.927,0-.25,1.593-1.11,3.42-4.586,3.385a4.351,4.351,0,0,1-4.5-3.9,5.533,5.533,0,0,1,.677-3.617A4.264,4.264,0,0,1,277.216,319a4.915,4.915,0,0,1,2.8.566c2.215,1.375,1.913,3.86,1.986,4.565C282.027,324.4,281.9,324.467,281.641,324.466Z" transform="translate(0 0)" fill="#243546" style="isolation: isolate"/>
    </g>
  </g>
</svg>
