<svg xmlns="http://www.w3.org/2000/svg" xmlns:xlink="http://www.w3.org/1999/xlink" width="33" height="33" viewBox="0 0 33 33">
  <defs>
    <clipPath id="clip-Twitter_1">
      <rect width="33" height="33"/>
    </clipPath>
  </defs>
  <g id="Twitter_1" data-name="Twitter – 1" clip-path="url(#clip-Twitter_1)">
    <path id="Path_137" data-name="Path 137" d="M110.312,58.711a16.5,16.5,0,1,0,16.5,16.5A16.5,16.5,0,0,0,110.312,58.711Zm9.508,10.454A8.346,8.346,0,0,1,118.152,71a.708.708,0,0,0-.267.55v.063a11.983,11.983,0,0,1-2.966,7.771,10.946,10.946,0,0,1-3.616,2.71,11.679,11.679,0,0,1-4.943,1.049,11.512,11.512,0,0,1-5.783-1.559.329.329,0,0,1-.158-.367.32.32,0,0,1,.314-.242h.485a7.753,7.753,0,0,0,4.334-1.32,4.2,4.2,0,0,1-3.319-2.859.2.2,0,0,1-.007-.1.219.219,0,0,1,.254-.179,3.8,3.8,0,0,0,.707.067h.089a4.2,4.2,0,0,1-2.449-3.868.218.218,0,0,1,.326-.188,3.749,3.749,0,0,0,.962.37,4.2,4.2,0,0,1-.688-5.1.207.207,0,0,1,.05-.059.221.221,0,0,1,.311.032,11,11,0,0,0,7.562,4.037h.01a.157.157,0,0,0,.115-.052.155.155,0,0,0,.039-.118,4.454,4.454,0,0,1,.1-1.544,4.061,4.061,0,0,1,2.736-2.927,4.493,4.493,0,0,1,1.328-.2A4.2,4.2,0,0,1,116.455,68a.553.553,0,0,0,.359.137.58.58,0,0,0,.128-.015,7.75,7.75,0,0,0,2.05-.847.216.216,0,0,1,.175-.021.221.221,0,0,1,.146.276,4.2,4.2,0,0,1-1.1,1.759,7.681,7.681,0,0,0,1.336-.451h0a.219.219,0,0,1,.212.017A.222.222,0,0,1,119.82,69.165Z" transform="translate(-93.813 -58.711)" fill="#6c5b43"/>
  </g>
</svg>
