<svg xmlns="http://www.w3.org/2000/svg" xmlns:xlink="http://www.w3.org/1999/xlink" width="481" height="1080" viewBox="0 0 481 1080">
  <defs>
    <clipPath id="clip-Web_1920_2">
      <rect width="481" height="1080"/>
    </clipPath>
  </defs>
  <g id="Web_1920_2" data-name="Web 1920 – 2" clip-path="url(#clip-Web_1920_2)">
    <path id="Path_3" data-name="Path 3" d="M328.772-3c-1.424,4.715-2.893,9.417-4.24,14.154a12.74,12.74,0,0,0-.282,3.473c.015,5.44-.73,10.662-3.815,15.351-.33.5.3,1.549.108,2.24a12.833,12.833,0,0,1-2.232,4.584c.37,3.223,1.465,5.765-2.419,9.137-2.559,2.221-1.632,8.2-2.8,12.341-1.82,6.488-1.146,13.681-5.447,19.493-.353.477-.1,1.42-.09,2.146.013,1,.471,2.612.034,2.9-5.426,3.6-2.736,10.813-6.913,15.122-1.564,1.613-1.86,4.769-2.106,7.283-.6,6.105-3.242,11.2-6.69,16.111a20.144,20.144,0,0,0-2.384,6.1c-1.4,4.936-2.717,9.9-3.895,14.895-.27,1.144.155,2.451.254,3.613l8.606-4.737v7.271l-1.06-.4c-.712,1.46-1.977,2.9-2.038,4.386-.238,5.841-.1,11.7-.1,17.548l1.776.283c.951-2.452,1.478-5.21,2.963-7.279,1.815-2.528.424-6.7,4.434-8.1.677-.237.406-2.843,1.166-3.249,2.318-1.241,4.925-1.941,8.59-3.279-1.909,4.829,1.71,9.424-2.987,12.4a74.1,74.1,0,0,1,.355,7.5c-.038.948-1.106,1.843-1.665,2.786-.507.854-1.359,1.733-1.377,2.614-.178,9.078-5.452,16.482-8.09,24.742-.16.5-1.62.586-1.191,1.656-1.569,3.132-3.208,6.232-4.675,9.411a32.766,32.766,0,0,0-1.346,4.358l1.313.664a27.652,27.652,0,0,0,2.944-2.236c4.113-4.051,8.327-8.02,12.163-12.323,1.519-1.7,1.866-4.414,3.273-6.267,1.291-1.7,3.351-2.8,4.96-4.282,1.9-1.755,3.68-3.641,6.516-6.473v15.563c-2.73.959-5.289,1.918-5.283,6.11,0,2.02-2.288,4.066-3.6,6.061-1.48,2.253-5.357,3.165-3.917,7.1.088.242-.964.853-1.423,1.351-1.4,1.515-2.76,3.062-4.143,4.589-1.434,1.583-2.968,3.085-4.292,4.755-1.82,2.3-3.3,4.882-5.257,7.047-2.9,3.208-6.234,6.023-9.1,9.258-2.151,2.429-5.882,3.756-5.275,8.384.168,1.277-3.183,2.832-4.541,4.556-.941,1.2-1.235,2.9-1.819,4.378a14.568,14.568,0,0,1,3.475-1.349c5.284-.613,7.7-5.684,12.12-7.611.907-.4,1.634-1.224,2.551-1.575,5.911-2.268,11.311-5.171,15.855-9.809a11.253,11.253,0,0,1,11.119-2.856c.936.261,1.993,5.009,1.1,6.011-3.087,3.469-6.935,6.287-10.625,9.185-7.5,5.891-14.645,12.265-23.131,16.824-6.842,3.676-13.661,7.4-20.348,11.353-3.969,2.343-7.614,5.226-11.49,7.735-3.715,2.4-7.587,4.565-11.306,6.962-4.475,2.884-8.863,5.906-14.1,9.414,2.086.148,3.679.774,4.432.232,5.953-4.282,12.829-4.436,19.72-5.3,6.993-.881,13.834-2.975,21.153-3.761-1.922,7.28-6.759,10.659-14.2,10.866q.036.656.074,1.313l5.124,1.54c.1.828.279,2.237.661,5.3,5.763-4.309,11.083-7.683,15.649-11.877,4.255-3.908,8.321-7.464,14.756-7.059,2.1,5.8-3.113,9-5.664,12.269-4.938,6.334-11.348,11.546-17.322,17.034a69.772,69.772,0,0,1-7.984,5.891c-3.753,2.567-7.469,5.227-11.44,7.414-1.731.954-4.055.832-6.391,1.249.092.6.131,1.7.285,1.715,4.6.491,8.932,4.251,13.9.7a35.765,35.765,0,0,1,9.78-5.14c6.315-1.991,12.845-3.3,19.467-4.933,1.154,6.848-1.325,9.824-7.234,11.437-3.374.921-6.158,4.005-8.97,5.951.573,1.775,1.345,4.163,1.7,5.263-7.064,2.7-13.453,5.131-19.831,7.593-1.376.531-2.658,1.484-4.07,1.716-6.011.991-9.577,5.7-14.077,8.979-2.731,1.991-5.431,4.027-8.144,6.042l.175,1.417c1.416-.067,3.068.315,4.207-.281,3.955-2.072,7.61-4.729,11.606-6.7,5.394-2.664,10.83-5.52,16.577-7.085,3.282-.894,4.609-4.825,9.178-4.011,3.282.584,7.07-2.624,10.786-3.308,6.389-1.175,12.9-1.7,19.449-2.512v5.508c-4.708,2.29-9.609,3.785-13.362,6.737-4.2,3.307-9.2,3.626-13.689,5.61-5.878,2.6-11.713,5.322-17.411,8.29-4.991,2.6-9.769,5.61-14.638,8.444a13.3,13.3,0,0,0-2.459,1.513c-7.123,6.625-14.264,13.231-21.269,19.98-2.681,2.583-7.4,3.8-6.218,9.292.225,1.045-1.908,2.6-2.953,3.915l1.368,1.147c3.157-3.019,6.128-6.269,9.515-9,4.715-3.8,8.936-8.5,13.889-11.562,4.518-2.791,8.488-5.42,11.625-9.692.471-.64,3.778.8,5.632,1.245v8.37c-4.18,3.039-8.259,5.562-11.8,8.692-4.378,3.872-8.308,8.248-12.433,12.4-.117.118-.33.2-.362.336-1.7,7.092-9.545,9.925-11.6,16.8-.8,2.682-1.941,5.264-2.926,7.891l1.429.865c1.059-1.063,2.947-2.055,3.046-3.2.692-8.035,6.364-8.028,13.554-7.982-1.961,4.6-3.514,8.788-5.491,12.764-3.318,6.669-6.816,13.252-10.426,19.768-1.359,2.454-2.38,4.734-2.036,7.691.1.878-2.276,1.821-2.728,3.029-1.676,4.472-2.913,9.106-4.511,13.61-5.09,14.353-3.414,29.255-3.771,44-.133,5.471,4.563,9.466,4.935,13.943.438,5.277,5.238,6.417,6.582,10.777,1.318,4.274,6.4,7.412,9.888,10.988,2.988,3.059,5.736,6.5,9.18,8.934,5.115,3.619,11.4,5.78,16,9.885,5.622,5.012,14.119,3.857,19,10.159,1.253,1.619,4.575,1.72,6.992,2.339,5.607,1.436,11.21,3.684,16.874,3.878,5.92.2,11.255-2.827,15.916-6.9,3.374-2.947,7.42-5.118,11.12-7.7a22.813,22.813,0,0,0,2.916-2.589c7.007-6.974,14.063-13.9,20.944-21,1.666-1.719,2.6-4.126,4.105-6.024,5.265-6.621,7.443-6.835,14.371-1.857.57.409,1.568.222,2.289.3-.372,13.654,1.247,27.589-6.076,40.054-.049,2.607,1.882,5.149-2.314,7.321-1.835.95-1.88,5.448-2.638,8.36-1.287,4.941-2.043,10.085-3.942,14.771-.834,2.058-1.3,4.572-3.8,6.448-1.972,1.482-2.294,5.336-4.906,7.479-1.918,1.573-3.1,4.1-4.435,6.3-.73,1.211-.788,2.9-1.669,3.932-1.849,2.162-4.063,4.01-6.089,6.025-5.667,5.634-11.077,11.555-17.054,16.836-3.869,3.417-8.548,5.923-12.891,8.8-.522.345-1.482.243-1.789.671-4.773,6.654-12.548,8.636-19.179,12.373-5.23,2.946-10.565,5.706-17.311,9.333,3.576,0,6.159.537,8.39-.121,3.788-1.116,7.292-3.153,11.024-4.5,7.755-2.811,16.359-4.193,23.158-8.473,6.592-4.15,13.56-7.939,19.844-12.987,6.239-5.012,12.691-10.067,17.3-16.2,2.482-3.307,8.408-5.728,7.09-11.755-.068-.31,2.01-.818,2.432-1.592.33-.6-.362-1.764.784-1.934,1.308-2.12,2.651-4.221,3.91-6.37a24.282,24.282,0,0,0,1.933-3.838c1.3-3.543,2.365-7.176,3.76-10.68.488-1.225,1.668-2.176,2.789-3.572-.63-2.021-2.128-4.222,1.794-6.371,1.866-1.023,2.1-5.408,2.651-8.349a144.494,144.494,0,0,0,2.059-14.36c.757-8.991.169-18.263,2.282-26.894.932-3.8,2.111-7.781,1.2-11.016-2.658-9.438-.855-18.957-1.79-28.37-.317-3.194-1.321-6.328-1.53-9.521-.3-4.516,2.979-7.181,6.021-9.753a2.965,2.965,0,0,1,2.816-.037c4.658,3.5,10.534,6.364,13.333,11.04,2.3,3.842,3.79,7.25,7.982,9.637,2.029,1.155,2.377,5.148,3.669,7.765a9.7,9.7,0,0,0,2.448,3.094c3.5,2.894,3.78,8.1,7.062,10.716,3.8,3.033,2.493,9.761,8.5,10.881.366.068.26,1.8.691,2.581.76,1.378,1.764,2.621,3.5,5.128-.211,3.07,1.944,6.362,5.956,9.156,1.754,1.222,2.491,4.109,3.347,6.37,2.037,5.381,3.554,10.979,5.877,16.227,2.121,4.791,5.252,9.128,7.5,13.871a64.767,64.767,0,0,1,3.268,10c.877,3.059.713,8.091,2.495,8.875,4.023,1.77,1.092,6.586,4.652,7.832.238.083.239.875.329,1.341,1.255,6.557,2.8,13.077,3.683,19.684.987,7.364,1.641,14.8,1.957,22.221.325,7.661-.021,15.349.158,23.02.029,1.256,1.739,2.448,1.833,3.731a81.594,81.594,0,0,1,.063,11.479c-.1,1.426-1.717,2.725-1.891,4.172-.318,2.63.313,5.4-.142,7.983-1.021,5.806-2.514,11.527-3.72,17.3-.768,3.677-1.375,7.387-2.039,11.086-.635,3.529-1.086,7.106-1.994,10.563-.216.819-1.935,1.244-3.073,1.916.028,3.852.992,7.852-3.461,10.691-1.566,1-2.076,4.264-2.325,6.574-.374,3.491-2.59,5.687-4.1,8.43-2.234,4.049-5.926,7.221-7.248,11.891-.587,2.074-2.553,3.827-4.085,5.555q-8.732,9.851-17.6,19.579c-2.64,2.9-5.037,6.2-8.167,8.453-8.035,5.786-16.409,11.1-24.666,16.578-3.039,2.015-6.056,4.082-9.215,5.9q-6.59,3.778-13.388,7.188c-4.153,2.086-8.385,4.03-12.659,5.858a78.287,78.287,0,0,1-8.909,3.2c-5.384,1.565-11.252,2.085-16.146,4.564-6.873,3.483-13.572,6.176-21.419,6.816-5.309.433-10.432,3.15-17.046,5.3-1.015,4.248-1.288,10.668-4.125,15.62-2.35,4.1-2.238,8.852-5.5,12.955-2.481,3.119-6.4,7.07-5.688,13.3.672,5.91-1.861,12.319-3.635,18.316-.9,3.031-3.539,5.5-4.849,8.464-2.245,5.077-4.033,10.356-6.087,15.52a7.892,7.892,0,0,1-1.712,2.666c-4.1,4.018-8.29,7.843-9.4,14.012-.224,1.248-3.173,1.807-4.34,3.142-1.132,1.294-1.588,3.178-2.34,4.8l1.069.752c-3.984,2.475-8.207,4.641-11.9,7.5-5.537,4.283-8.657-1.549-13.085-2.616v-13.871c-4.169,4.867-7.6,9.018-11.2,13.017-1.808,2.008-3.923,3.738-5.893,5.6-.6.573-1.729,1.207-1.692,1.749.292,4.234-3.275,5.484-5.608,7.761-8.038,7.844-15.8,15.979-24.011,23.634-5.826,5.432-12.175,10.309-18.39,15.311-.63.507-1.94.215-2.935.218-24.981.074-49.962.174-74.943.1-1.3,0-2.592-1.546-3.67-2.233,5.661-3.073,10.72-5.332,15.231-8.395a178.863,178.863,0,0,0,15.3-12.062c2.038-1.737,3.309-4.367,5.329-6.133,1.923-1.679,4.692-2.421,6.528-4.164,8.15-7.742,16.154-15.642,24.09-23.6,2.678-2.688,4.665-6.161,7.609-8.45,1.8-1.4,4.827-1.714,7.287-1.667,6.839.13,12.791,6.82,10.345,12.27a17.438,17.438,0,0,0-1.661,7.293c-.037,2.812-.008,5.625-.008,9.765,7.578-7.454,15.768-13.179,20.646-20.975,4.711-7.528,13.547-11.754,16.389-20.435,2.421-2.65,6.352-3.626,6.647-8.822.14-2.474,3.051-4.78,4.666-7.189a14.963,14.963,0,0,0,1.292-2.414c.2-.473.165-1.482.3-1.494,5.474-.464,3.862-6.224,6.614-8.839,3.1-2.949,3.644-7.656,6.9-10.88,3.006-2.977,4.914-7.062,8.346-12.223h13.163l2.961,15.673,1-.043V928.437c-4.9,5.788-9.228,11.319-14.029,16.407-2.239,2.373-5.386,3.89-8.671,6.177-1.895-10.729-.49-19.16,5.841-26.449l-4.908-4.053c-3.08.481-5.579,1.231-8.063,1.183-5.045-.1-7.545,2.13-9.278,6.895-.9,2.467-1.508,5.585-4.656,7.508-2.2,1.345-2.907,5.087-4.366,7.712-1.517,2.73-3.573,5.246-4.615,8.135-1.969,5.466-7.231,8.961-8.4,15-.282,1.46-3.616,2.331-5.2,3.266-5.4-12.616-1.837-24.7,1.089-38.049-8.13,2.325-15.677,3.492-22.277,6.641-7.112,3.394-14.613,6.73-20.015,12.988-1.093,1.266-2.782,2.433-3.078,3.875-.44,2.142-1.053,3.146-3.266,3.861-1.006.325-1.292,2.88-2.155,5.053-3.1,2.11-5.791,7.941-13.017,4.424.7-4.355,2.176-9.425,2.154-14.489-.026-6.012,2.315-12.328-1.5-18.137-.6-.907.118-2.606.038-3.927-.613-10.079-5.753-17.563-13.8-23.155a12.036,12.036,0,0,0-6.442-2.145c-6.739,0-10.173-7.251-18.113-6.862,6.522,7.233,13.619,13.462,18.569,21.084,4.374,6.737,9.07,13.679,11.1,21.8,2.19,8.752,4.507,17.471,6.774,26.221-4.214,1.147-6-.567-8.576-2.59-4.561-3.583-8.9-8.079-15.712-8.129-6.509-.048-13.04-1.824-19.5-1.541-5.548.243-11.011,2.339-16.523,3.563a10.07,10.07,0,0,1-1.992-.1c-8.3.063-16.324,1-22.752,7.085a1.245,1.245,0,0,1-.938.269c-7.767-1.346-13.007,6.432-20.651,5.743-.924-.083-1.976,1.255-3.633,2.388V947.947c4.869-.935,10.123-1.313,14.894-3.03,5.2-1.869,11.4-3.869,14.456-7.877,2.834-3.721,7.623-7.249,7.906-12.164.263-4.555-1.534-9.295-2.8-13.847-.769-2.752-1.7-5.828-3.564-7.818a38.879,38.879,0,0,0-9.446-7.033,119.417,119.417,0,0,0-14.652-6.854c-2.026-.793-4.524-.381-7.021-.53V866.311c4.307.843,8.381,1.7,12.477,2.429,4.869.869,9.757,1.634,14.637,2.444l.513-1.284c-1.986-1.008-4.057-1.878-5.941-3.049-7.3-4.533-14.588-9.126-20.2-15.788a7.34,7.34,0,0,1-1.651-4.345q-.111-94.854-.041-189.707a20.9,20.9,0,0,1,.313-2.2h4.7c12.185,0,24.376.236,36.554-.068,11.58-.289,23.245-.411,34.689-1.962,10.438-1.415,20.991-2.185,31.252-4.006,4.292-.761,9.717-.317,14.283-4.309,4.2-3.674,11.149-4.126,16.761-6.318a34.667,34.667,0,0,0,7.4-4.275c8.889-6.377,18.367-12.683,23.194-22.64,4.136-8.534,3.838-18.632,2.228-27.858-.611-3.5-1.712-7.031-1.74-10.731,0-.615-.149-1.656-.489-1.778-5.187-1.87-2.443-5.525-2.028-8.739-.9-.567-2.5-1.025-2.651-1.772-.823-4.15-.816-8.51-2-12.531-1.473-4.992-3.87-9.709-5.777-14.58a7.878,7.878,0,0,1-.363-2.946c.063-3.435-2.376-5.51-4.188-7.932-.257-.343-.694-.663-.742-1.033-.586-4.511-.939-9.059-1.7-13.538-1.131-6.653-2.621-13.244-3.787-19.892-.369-2.1.061-4.35-.35-6.437-.273-1.384-1.39-2.6-2.129-3.9l-1.214.349c0-2.315-.076-4.634.022-6.945.095-2.254.369-4.5.562-6.713-5.006-3.7-1.461-8.774-2.636-13.025a26.389,26.389,0,0,1-1.578-4.248c-1.274-6.657-2.439-13.335-3.58-20.017a24.052,24.052,0,0,1-.226-3.976c-.018-8.342-.477-16.719.138-25.016.52-7.016.859-14.318,6.983-19.7,2.525-2.217,4.007-5.62,6.385-9.1l-20.191,7.975c-2.084-7.889-.256-12.989,5.954-17.209,2.892-1.965,7.392-3.975,6.476-9.478-.208-1.252,2.859-2.781,3.712-4.527,2.581-5.282,3.986-11.372,7.479-15.889,2.265-2.93-.986-8.249,4.551-9.183.182-.031-.148-2.19.033-3.313.349-2.166.892-4.3,1.516-7.194-3.236-3.923-1.781-9.813,3.464-12.618,6.384-3.414,12.939-6.868,18.435-11.478,5.542-4.65,9.8-10.812,14.764-16.173,5.048-5.448,10.271-10.734,15.446-16.064.446-.459,1.6-.729,1.587-1.061-.16-5.249,5.162-6.643,7.275-10.353,2.151-3.776,5.484-6.876,8.284-10.286.416-.508,1.191-1.332,1.045-1.6-2.988-5.521,2.316-6.974,4.584-10.084,1.517-2.081,1.845-5.028,2.912-8.2,7.09-4.177,10.466-11.515,12.156-20.114.478-2.43,2.333-4.59,3.627-7.006,0-3.689-.525-8.027.175-12.157.513-3.032,2.67-5.775,4.017-8.683a10.036,10.036,0,0,0,1.349-3.864c-.021-6.952,2.082-12.731,5.682-18.988,3.364-5.847,7.619-12.166,7.329-20.1a22.352,22.352,0,0,1,4.042-13.351c1.677-2.231.652-4.331,1.655-5.528A21.315,21.315,0,0,0,277.43,96.7c1.671-3.989,3.58-7.517,3.738-12.1.093-2.674,2.4-5.236,3.5-7.932.379-.923-.069-2.164.231-3.146a54.613,54.613,0,0,1,2.352-5.35c-.742-1.916-.986-4.414,2.122-7.533,2.216-2.223,2.616-6.784,2.821-10.359.345-6,3.13-10.652,5.716-15.8,1.333-2.656,4.049-4.217,4.662-7.215.636-3.113,1.771-6.121,2.533-9.214.732-2.97,1.128-6.028,1.959-8.966.295-1.046,1.434-1.853,1.283-3.165a68.75,68.75,0,0,0,3.1-6.281c.265-.687-.443-1.748-.705-2.638Zm8.793,719.183a46.928,46.928,0,0,0-4.793,1.692c-5.4,2.622-10.687,5.5-16.156,7.974-5.153,2.329-10.718,3.829-15.675,6.489a64.994,64.994,0,0,1-18.705,7.146c-6.307,1.243-10.9,1.595-15.005-2.3-4.906,1.316-9.208,2.972-13.651,3.555-8.5,1.118-17.013.03-25.74,1.678-12.58,2.376-25.78-.95-38.66,2.237-4.875,1.206-10.3.165-15.473.218a15.178,15.178,0,0,0-3.9.481c-5.145,1.442-10.219,3.161-15.4,4.446-3.974.985-8.069,1.482-12.113,2.18-7.525,1.3-15.024,2.781-22.584,3.827-6.851.947-13.769,1.4-20.652,2.125-.552.058-1.043.586-1.588.843a31.3,31.3,0,0,1-4.564,2.055c-4.506,1.29-9.064,2.4-13.6,3.578-3.176.824-6.317,1.839-9.537,2.424-5.4.98-10.86,1.685-17.093,2.627,2.185,2.76,5.577,5.156,5.337,7.1-.693,5.614,3.759,8.481,6.192,11.325,6.482,7.577,13.21,14.95,21.679,20.978,6.8,4.843,13.1,10.648,20.067,15.618,4.706,3.357,8.794,6.314,14.634,7.927,8.882,2.454,17.208,6.941,25.73,10.654,2.636,1.149,5.114,2.654,7.719,3.881,2.975,1.4,5.9,3.345,9.045,3.845,4.433.707,7.264,7.453,12.968,3.32.828-.6,2.635-.184,3.87.173,3.893,1.123,7.654,3.1,11.6,3.554,9.433,1.078,18.942,1.518,28.426,2.117,2.826.178,5.676.116,8.51.013q26.739-.975,53.473-2.059c.593-.024,1.163-.613,2.742-1.5-27.585-1.346-53.474-4.638-75.809-21.154V831.16c4.852-2.238,8.989-4.75,13.476-6.071,6.276-1.846,12.77-3.627,19.248-3.966,12.566-.658,25.216-.813,37.661,1.875a2.878,2.878,0,0,1,1.449,1.03c3.84,4.787,9.186,8.369,10.7,15,.825,3.6.1,14.2-2.04,16.824,1.785-.442,3.518-1.885,5.111-1.743,6.982.619,11.464-4.934,17.482-6.624,4.351-1.222,8.538-3.023,12.809-4.537,2.772-.983,5.6-1.823,8.337-2.886,5.1-1.98,10.105-4.209,15.246-6.069,2.92-1.057,6.559-.833,8.952-2.505a183.3,183.3,0,0,0,17.957-14.408c3.671-3.324,6.471-7.59,9.912-11.195,1.64-1.72,4.149-2.617,5.766-4.351,3.851-4.13,7.9-7.826,11-12.991,2.7-4.5,5.144-9.334,7.833-13.9,2.216-3.762,3.264-8.241,4.62-12.47,1.365-4.26,3.463-8.609,3.443-12.91-.026-5.5,4.443-10.243,2.177-15.914-.124-.311.312-1.221.552-1.247,3.548-.377,2.526-3.178,2.284-4.948-1.371-10.023,2.659-20.245-2.527-30.36-2.208-4.3-.369-10.682-.369-13.627-2.325-10.582-4.039-19.057-6.074-27.455-2.039-8.413-4.4-16.749-6.453-24.492a26.983,26.983,0,0,1-2.467-4.4c-.849-2.644-1.232-5.439-2.092-8.078-1.427-4.379-3.078-8.686-4.955-13.915-1.137,6.938-2.02,12.707-3.048,18.451-.582,3.253-.343,7.622-2.341,9.447-3.862,3.529-2.885,8.16-4.631,12.043-1.986,4.414-3.787,8.912-5.634,13.388s-3.579,9.006-5.5,13.451a30.371,30.371,0,0,1-3.388,6.288c-2.178,2.88-6.23,5.2-6.805,8.255-1.13,6.012-6.165,8.027-9.478,11.682-2.928,3.231-7.259,5.222-10.057,8.532C343.948,709.992,336.622,709.51,337.565,716.183Zm-15.334-93.2c4.749-.786,9.238-8.42,7.893-13.721-4.279,2.982-8.721,5.7-12.734,8.95a99.983,99.983,0,0,1-31.982,17.3c-4.676,1.55-8.731,5.252-13.983,6.36-4.8,1.013-9.4,2.987-14.173,4.191-4.214,1.063-8.555,1.615-12.822,2.485-.563.114-.969.857-1.525,1.17a15.164,15.164,0,0,1-3.848,1.923c-3.921.872-7.933,1.334-11.847,2.227-7.293,1.665-14.5,3.752-21.823,5.223-5.972,1.2-12.073,1.752-18.116,2.6-.491.069-1.2.025-1.427.323-2.987,3.882-7.235,2.317-11.053,2.674-6.058.566-12.1,1.363-18.16,1.834-8.989.7-17.989,1.622-26.991,1.7-25.7.213-51.408.067-77.112-.02a13.6,13.6,0,0,1-5.1-1.107,12.091,12.091,0,0,0-15.511,6.8c-.244.671-1.045,1.118-1.473,1.747-1.108,1.625-2.152,3.293-3.221,4.945-.3.97-1.638,1.213-2.556,1.966-2.423,1.984-4.794,4.127-3.784,7.824-5.372,2.137-3.477,6.826-3.774,10.743a38.339,38.339,0,0,1-4.575,6.535c-4.036,2.405-3.171,6.423-2.657,9.844.477,3.179,3.257,3.992,6.473,3.982,29.877-.09,59.755-.05,89.632-.065,1.326,0,3.106.343,3.9-.354,4.855-4.256,11.28-1.715,17.031-4.59,7.413-3.707,16.973-3.657,25.667-4.123,9.088-.488,18-1.355,26.737-3.934q4.617-1.363,9.292-2.533c4.49-1.125,9-2.156,13.5-3.244s9.015-2.076,13.462-3.328q7.56-2.129,14.989-4.7c1.593-.555,2.841-2.423,4.409-2.674,7.54-1.206,14.8-3.02,20.846-7.972,1.809-1.483,3.015-3.809,4.956-5,6.357-3.909,13.83-6.079,18.71-12.261a2.024,2.024,0,0,1,1.221-.741c6.608-.646,10.575-5.989,15.429-9.368,5.44-3.786,8.908-10.341,14.234-14.371,5.518-4.175,5.828-11.71,11.554-15.439C322.488,626.405,322.129,624.609,322.231,622.984ZM208.359,595.523a87.383,87.383,0,0,0,2.992,8.9,27.1,27.1,0,0,0,4.275,6.656c2.5,2.844,5.5,5.244,8.093,8.019,6.089,6.526,15.814,8.391,25.14,4.41C232.524,618.116,220.167,607.614,208.359,595.523Z" transform="translate(0.733 -1)" fill="#fff"/>
    <path id="Path_11" data-name="Path 11" d="M337.565,716.183c-.943-6.673,6.383-6.191,9.45-9.818,2.8-3.31,7.129-5.3,10.057-8.532,3.313-3.655,8.348-5.67,9.478-11.682.575-3.059,4.627-5.375,6.805-8.255a30.371,30.371,0,0,0,3.388-6.288c1.924-4.445,3.656-8.972,5.5-13.451s3.648-8.974,5.634-13.388c1.746-3.883.769-8.514,4.631-12.043,2-1.825,1.759-6.194,2.341-9.447,1.028-5.744,1.911-11.513,3.048-18.451,1.877,5.229,3.528,9.536,4.955,13.915.86,2.639,1.243,5.434,2.092,8.078a26.983,26.983,0,0,0,2.467,4.4c2.053,7.743,4.414,16.079,6.453,24.492,2.035,8.4,3.749,16.873,6.074,27.455,0,2.945-1.839,9.322.369,13.627,5.186,10.115,1.156,20.337,2.527,30.36.242,1.77,1.264,4.571-2.284,4.948-.24.026-.676.936-.552,1.247,2.266,5.671-2.2,10.411-2.177,15.914.02,4.3-2.078,8.65-3.443,12.91-1.356,4.229-2.4,8.708-4.62,12.47-2.689,4.564-5.136,9.4-7.833,13.9-3.1,5.165-7.147,8.861-11,12.991-1.617,1.734-4.126,2.631-5.766,4.351-3.441,3.6-6.241,7.871-9.912,11.195A183.3,183.3,0,0,1,357.3,831.49c-2.393,1.672-6.032,1.448-8.952,2.505-5.141,1.86-10.147,4.089-15.246,6.069-2.74,1.063-5.565,1.9-8.337,2.886-4.271,1.514-8.458,3.315-12.809,4.537-6.018,1.69-10.5,7.243-17.482,6.624-1.593-.142-3.326,1.3-5.111,1.743,2.136-2.624,2.865-13.22,2.04-16.824-1.517-6.633-6.863-10.215-10.7-15a2.878,2.878,0,0,0-1.449-1.03c-12.445-2.688-25.1-2.533-37.661-1.875-6.478.339-12.972,2.12-19.248,3.966-4.487,1.321-8.624,3.833-13.476,6.071v4.091c22.335,16.516,48.224,19.808,75.809,21.154-1.579.885-2.149,1.474-2.742,1.5q-26.734,1.087-53.473,2.059c-2.834.1-5.684.165-8.51-.013-9.484-.6-18.993-1.039-28.426-2.117-3.949-.452-7.71-2.431-11.6-3.554-1.235-.357-3.042-.773-3.87-.173-5.7,4.133-8.535-2.613-12.968-3.32-3.141-.5-6.07-2.442-9.045-3.845-2.605-1.227-5.083-2.732-7.719-3.881-8.522-3.713-16.848-8.2-25.73-10.654-5.84-1.613-9.928-4.57-14.634-7.927-6.97-4.97-13.265-10.775-20.067-15.618-8.469-6.028-15.2-13.4-21.679-20.978-2.433-2.844-6.885-5.711-6.192-11.325.24-1.947-3.152-4.343-5.337-7.1,6.233-.942,11.688-1.647,17.093-2.627,3.22-.585,6.361-1.6,9.537-2.424,4.538-1.179,9.1-2.288,13.6-3.578a31.3,31.3,0,0,0,4.564-2.055c.545-.257,1.036-.785,1.588-.843,6.883-.727,13.8-1.178,20.652-2.125,7.56-1.046,15.059-2.527,22.584-3.827,4.044-.7,8.139-1.195,12.113-2.18,5.182-1.285,10.256-3,15.4-4.446a15.178,15.178,0,0,1,3.9-.481c5.174-.053,10.6.988,15.473-.218,12.88-3.187,26.08.139,38.66-2.237,8.727-1.648,17.237-.56,25.74-1.678,4.443-.583,8.745-2.239,13.651-3.555,4.1,3.9,8.7,3.547,15.005,2.3a64.994,64.994,0,0,0,18.705-7.146c4.957-2.66,10.522-4.16,15.675-6.489,5.469-2.472,10.753-5.352,16.156-7.974A46.928,46.928,0,0,1,337.565,716.183Z" transform="translate(0.733 -1)" fill="#fff"/>
    <path id="Path_12" data-name="Path 12" d="M322.231,622.984c-.1,1.625.257,3.421-.312,3.791-5.726,3.729-6.036,11.264-11.554,15.439-5.326,4.03-8.794,10.585-14.234,14.371-4.854,3.379-8.821,8.722-15.429,9.368a2.024,2.024,0,0,0-1.221.741c-4.88,6.182-12.353,8.352-18.71,12.261-1.941,1.194-3.147,3.52-4.956,5-6.045,4.952-13.306,6.766-20.846,7.972-1.568.251-2.816,2.119-4.409,2.674q-7.413,2.586-14.989,4.7c-4.447,1.252-8.969,2.24-13.462,3.328s-9.012,2.119-13.5,3.244q-4.671,1.172-9.292,2.533c-8.732,2.579-17.649,3.446-26.737,3.934-8.694.466-18.254.416-25.667,4.123-5.751,2.875-12.176.334-17.031,4.59-.8.7-2.576.353-3.9.354-29.877.015-59.755-.025-89.632.065-3.216.01-6-.8-6.473-3.982-.514-3.421-1.379-7.439,2.657-9.844a38.339,38.339,0,0,0,4.575-6.535c.3-3.917-1.6-8.606,3.774-10.743-1.01-3.7,1.361-5.84,3.784-7.824.918-.753,2.254-1,2.556-1.966,1.069-1.652,2.113-3.32,3.221-4.945.428-.629,1.229-1.076,1.473-1.747a12.091,12.091,0,0,1,15.511-6.8,13.6,13.6,0,0,0,5.1,1.107c25.7.087,51.41.233,77.112.02,9-.075,18-1,26.991-1.7,6.064-.471,12.1-1.268,18.16-1.834,3.818-.357,8.066,1.208,11.053-2.674.23-.3.936-.254,1.427-.323,6.043-.847,12.144-1.4,18.116-2.6,7.328-1.471,14.53-3.558,21.823-5.223,3.914-.893,7.926-1.355,11.847-2.227a15.164,15.164,0,0,0,3.848-1.923c.556-.313.962-1.056,1.525-1.17,4.267-.87,8.608-1.422,12.822-2.485,4.774-1.2,9.368-3.178,14.173-4.191,5.252-1.108,9.307-4.81,13.983-6.36a99.983,99.983,0,0,0,31.982-17.3c4.013-3.249,8.455-5.968,12.734-8.95C331.469,614.564,326.98,622.2,322.231,622.984Z" transform="translate(0.733 -1)" fill="#fff"/>
    <path id="Path_13" data-name="Path 13" d="M208.359,595.523c11.808,12.091,24.165,22.593,40.5,27.985-9.326,3.981-19.051,2.116-25.14-4.41-2.59-2.775-5.591-5.175-8.093-8.019a27.1,27.1,0,0,1-4.275-6.656A87.383,87.383,0,0,1,208.359,595.523Z" transform="translate(0.733 -1)" fill="#fff"/>
  </g>
</svg>
