<svg xmlns="http://www.w3.org/2000/svg" width="175" height="520.78" viewBox="0 0 175 520.78">
  <g id="Group_1" data-name="Group 1" transform="translate(-1543 159.5)">
    <circle id="Ellipse_5" data-name="Ellipse 5" cx="20.439" cy="20.439" r="20.439" transform="translate(1631.784 317.846) rotate(90)" fill="#302f2f"/>
    <rect id="Rectangle_8" data-name="Rectangle 8" width="40" height="64" transform="translate(1681 4) rotate(90)" fill="#302f2f"/>
    <rect id="Rectangle_9" data-name="Rectangle 9" width="40" height="64" transform="translate(1607 4) rotate(90)" fill="#302f2f"/>
    <rect id="Rectangle_10" data-name="Rectangle 10" width="40" height="63" transform="translate(1718 82) rotate(90)" fill="#302f2f"/>
    <rect id="Rectangle_11" data-name="Rectangle 11" width="40" height="64" transform="translate(1644 82) rotate(90)" fill="#302f2f"/>
    <rect id="Rectangle_12" data-name="Rectangle 12" width="40" height="64" transform="translate(1664 160) rotate(90)" fill="#302f2f"/>
    <rect id="Rectangle_13" data-name="Rectangle 13" width="40" height="64" transform="translate(1641 238) rotate(90)" fill="#302f2f"/>
    <text id="Menu" transform="translate(1648 27)" fill="#fff" font-size="7" font-family="HelveticaNeue, Helvetica Neue"><tspan x="-8.82" y="0">Menu</tspan></text>
    <text id="Menu_Option_Cust." data-name="Menu
Option
Cust." transform="translate(1574 17)" fill="#fff" font-size="7" font-family="HelveticaNeue, Helvetica Neue"><tspan x="-8.82" y="0">Menu</tspan><tspan x="-10.57" y="8">Option</tspan><tspan x="-8.299" y="16">Cust.</tspan></text>
    <text id="Campaign" transform="translate(1685 104)" fill="#fff" font-size="7" font-family="HelveticaNeue, Helvetica Neue"><tspan x="-16.079" y="0">Campaign</tspan></text>
    <text id="Product_Listing" data-name="Product Listing" transform="translate(1598 92)" fill="#fff" font-size="18" font-family="HelveticaNeue, Helvetica Neue"><tspan x="0.167" y="17">Pro</tspan></text>
    <text id="Product_Page" data-name="Product Page" transform="translate(1618 170)" fill="#fff" font-size="18" font-family="HelveticaNeue, Helvetica Neue"><tspan x="0.167" y="17">Pro</tspan></text>
    <text id="_Cust._Product_Page_" data-name=" Cust. Product Page " transform="translate(1595 244)" fill="#fff" font-size="18" font-family="HelveticaNeue, Helvetica Neue"><tspan x="14" y="17"> </tspan></text>
    <text id="Contact" transform="translate(1598 333)" fill="#fff" font-size="18" font-family="HelveticaNeue, Helvetica Neue"><tspan x="2.336" y="17">Co</tspan></text>
    <g id="Ellipse_6" data-name="Ellipse 6" transform="translate(1634.339 315.291) rotate(90)" fill="none" stroke="#e35353" stroke-width="1">
      <circle cx="22.994" cy="22.994" r="22.994" stroke="none"/>
      <circle cx="22.994" cy="22.994" r="22.494" fill="none"/>
    </g>
    <line id="Line_15" data-name="Line 15" x2="28.53" transform="translate(1611.77 -37.928) rotate(90)" fill="none" stroke="#a8a7a7" stroke-width="1"/>
    <line id="Line_16" data-name="Line 16" y2="76.222" transform="translate(1648.604 -9.398) rotate(90)" fill="none" stroke="#a8a7a7" stroke-width="1"/>
    <line id="Line_17" data-name="Line 17" x1="13.2" transform="translate(1648.604 -9.398) rotate(90)" fill="none" stroke="#a8a7a7" stroke-width="1"/>
    <line id="Line_18" data-name="Line 18" x1="13.2" transform="translate(1572.382 -9.398) rotate(90)" fill="none" stroke="#a8a7a7" stroke-width="1"/>
    <line id="Line_19" data-name="Line 19" x2="24.272" transform="translate(1649.03 44.256) rotate(90)" fill="none" stroke="#a8a7a7" stroke-width="1"/>
    <line id="Line_20" data-name="Line 20" y2="76.648" transform="translate(1688.205 68.527) rotate(90)" fill="none" stroke="#a8a7a7" stroke-width="1"/>
    <line id="Line_21" data-name="Line 21" x1="13.2" transform="translate(1688.205 68.527) rotate(90)" fill="none" stroke="#707070" stroke-width="1"/>
    <line id="Line_22" data-name="Line 22" x1="13.2" transform="translate(1611.983 68.527) rotate(90)" fill="none" stroke="#a8a7a7" stroke-width="1"/>
    <line id="Line_23" data-name="Line 23" x1="37.472" transform="translate(1611.131 200.106) rotate(90)" fill="none" stroke="#a8a7a7" stroke-width="1"/>
    <line id="Line_24" data-name="Line 24" y2="74.093" transform="translate(1685.65 135.381) rotate(90)" fill="none" stroke="#a8a7a7" stroke-width="1"/>
    <line id="Line_25" data-name="Line 25" x2="13.2" transform="translate(1685.65 122.181) rotate(90)" fill="none" stroke="#a8a7a7" stroke-width="1"/>
    <line id="Line_26" data-name="Line 26" x2="13.2" transform="translate(1611.557 122.181) rotate(90)" fill="none" stroke="#a8a7a7" stroke-width="1"/>
    <line id="Line_27" data-name="Line 27" x1="213.337" transform="translate(1560.885 44.256) rotate(90)" fill="none" stroke="#a8a7a7" stroke-width="1"/>
    <line id="Line_28" data-name="Line 28" y1="19.588" transform="translate(1580.472 102.167) rotate(90)" fill="none" stroke="#a8a7a7" stroke-width="1"/>
    <line id="Line_29" data-name="Line 29" y1="15.755" transform="translate(1576.64 257.592) rotate(90)" fill="none" stroke="#707070" stroke-width="1"/>
    <line id="Line_30" data-name="Line 30" x1="37.472" transform="translate(1610.067 278.032) rotate(90)" fill="none" stroke="#a8a7a7" stroke-width="1"/>
    <line id="Line_31" data-name="Line 31" x2="24.272" transform="translate(1648.604 135.381) rotate(90)" fill="none" stroke="#a8a7a7" stroke-width="1"/>
    <circle id="Ellipse_7" data-name="Ellipse 7" cx="20.439" cy="20.439" r="20.439" transform="translate(1633.061 -156.945) rotate(90)" fill="#302f2f"/>
    <rect id="Rectangle_14" data-name="Rectangle 14" width="40" height="64" transform="translate(1646 -78) rotate(90)" fill="#302f2f"/>
    <text id="User" transform="translate(1604 -134)" fill="#fff" font-size="7" font-family="HelveticaNeue, Helvetica Neue"><tspan x="0" y="0">User</tspan></text>
    <text id="Start_Page" data-name="Start
Page" transform="translate(1613 -60)" fill="#fff" font-size="7" font-family="HelveticaNeue, Helvetica Neue"><tspan x="-7.518" y="0">Start</tspan><tspan x="-8.036" y="8">Page</tspan></text>
    <g id="Ellipse_8" data-name="Ellipse 8" transform="translate(1635.616 -159.5) rotate(90)" fill="none" stroke="#535855" stroke-width="1">
      <circle cx="22.994" cy="22.994" r="22.994" stroke="none"/>
      <circle cx="22.994" cy="22.994" r="22.494" fill="none"/>
    </g>
    <line id="Line_32" data-name="Line 32" x2="34.917" transform="translate(1611.983 -113.298) rotate(90)" fill="none" stroke="#a8a7a7" stroke-width="1"/>
  </g>
</svg>
