<svg xmlns="http://www.w3.org/2000/svg" xmlns:xlink="http://www.w3.org/1999/xlink" width="40" height="40" viewBox="0 0 40 40">
  <defs>
    <clipPath id="clip-Behance">
      <rect width="40" height="40"/>
    </clipPath>
  </defs>
  <g id="Behance" clip-path="url(#clip-Behance)">
    <g id="Group_12890" data-name="Group 12890" transform="translate(-254.33 -304.742)">
      <path id="Path_12656" data-name="Path 12656" d="M276.241,319.859a2,2,0,0,0-2.068,1.808h3.8A1.687,1.687,0,0,0,276.241,319.859Z" transform="translate(4.948 3.452)" fill="#243546" style="isolation: isolate"/>
      <path id="Path_12657" data-name="Path 12657" d="M267.267,321.686q-1.5,0-3,0c-.1,0-.2.011-.307.018v3.105c1.22,0,2.417.032,3.611-.014a1.055,1.055,0,0,0,1.012-1,3.225,3.225,0,0,0-.058-1.179A1.164,1.164,0,0,0,267.267,321.686Z" transform="translate(2.34 4.086)" fill="#243546" style="isolation: isolate"/>
      <path id="Path_12658" data-name="Path 12658" d="M267.457,319.836a.637.637,0,0,0,.642-.519,4.873,4.873,0,0,0,.086-1.289.851.851,0,0,0-.968-.8q-1.469,0-2.937,0c-.1,0-.2.01-.309.016v2.6C265.144,319.844,266.3,319.856,267.457,319.836Z" transform="translate(2.305 2.89)" fill="#243546" style="isolation: isolate"/>
      <path id="Path_12659" data-name="Path 12659" d="M274.33,305.742a19,19,0,1,0,19,19A19,19,0,0,0,274.33,305.742Zm9.484,12.437c0,.531.01,1.044-.011,1.556,0,.073-.155.2-.239.2q-2.739.017-5.477,0c-.086,0-.242-.124-.246-.2-.021-.512-.011-1.025-.011-1.562Zm-9.705,11.829a3.761,3.761,0,0,1-2.319,1.581,6.807,6.807,0,0,1-1.661.219c-2.363.023-4.728.01-7.091.01h-.421V317.779c0-.474,0-.474.472-.474,2.329,0,4.658,0,6.987,0a4.557,4.557,0,0,1,2.786.774,3.2,3.2,0,0,1,1.356,2.355,6.115,6.115,0,0,1-.05,1.6A2.213,2.213,0,0,1,272.6,323.8c-.052.018-.1.047-.214.1.24.064.418.1.589.159a2.41,2.41,0,0,1,1.566,1.722A4.939,4.939,0,0,1,274.109,330.008Zm11.519-2.7c-2.234-.011-4.47-.006-6.7-.006-.45,0-.461.013-.413.45a2.185,2.185,0,0,0,1.946,2.03,3.582,3.582,0,0,0,2-.208,1.424,1.424,0,0,0,.875-1.027.3.3,0,0,1,.354-.278c.725.014,1.448,0,2.219,0-.288,1.835-1.278,3.938-5.281,3.9a5.01,5.01,0,0,1-5.182-4.5,6.371,6.371,0,0,1,.78-4.166,4.91,4.91,0,0,1,4.316-2.5,5.66,5.66,0,0,1,3.22.652c2.55,1.583,2.2,4.445,2.287,5.257C286.072,327.226,285.928,327.3,285.627,327.3Z" transform="translate(0 0)" fill="#243546" style="isolation: isolate"/>
    </g>
  </g>
</svg>
