<svg xmlns="http://www.w3.org/2000/svg" xmlns:xlink="http://www.w3.org/1999/xlink" width="40" height="40" viewBox="0 0 40 40">
  <defs>
    <clipPath id="clip-Linkedin">
      <rect width="40" height="40"/>
    </clipPath>
  </defs>
  <g id="Linkedin" clip-path="url(#clip-Linkedin)">
    <path id="Path_12655" data-name="Path 12655" d="M48.04,180.294a19,19,0,1,0,19,19A19,19,0,0,0,48.04,180.294Zm-4.021,26c-1.014-.043-2.032-.011-3.135-.011V194.747c1.127,0,2.182.028,3.234-.009.749-.026.929.334.926,1-.019,3.174-.025,6.349,0,9.523C45.054,206.03,44.785,206.324,44.019,206.291Zm-1.237-12.427a2.266,2.266,0,1,1,2.265-2.265A2.266,2.266,0,0,1,42.781,193.863Zm15.206,12.413h-4c0-2.028,0-3.973,0-5.919,0-1.579-.583-2.506-1.594-2.552s-1.908,1.116-1.931,2.613c-.029,1.911-.007,3.822-.007,5.795H46.539V194.821h3.834l.147.743a6.294,6.294,0,0,1,3.389-1.1,4,4,0,0,1,4.079,4.057Z" transform="translate(-28.04 -179.294)" fill="#243546"/>
  </g>
</svg>
