<svg xmlns="http://www.w3.org/2000/svg" xmlns:xlink="http://www.w3.org/1999/xlink" width="40" height="40" viewBox="0 0 40 40">
  <defs>
    <clipPath id="clip-Twitter">
      <rect width="40" height="40"/>
    </clipPath>
  </defs>
  <g id="Twitter" clip-path="url(#clip-Twitter)">
    <path id="Path_137" data-name="Path 137" d="M112.812,58.711a19,19,0,1,0,19,19A19,19,0,0,0,112.812,58.711Zm10.949,12.038a9.61,9.61,0,0,1-1.921,2.107.815.815,0,0,0-.307.633v.073a13.8,13.8,0,0,1-3.415,8.949,12.6,12.6,0,0,1-4.164,3.121,13.449,13.449,0,0,1-5.692,1.208,13.257,13.257,0,0,1-6.659-1.8.379.379,0,0,1-.182-.423.368.368,0,0,1,.361-.279h.559a8.928,8.928,0,0,0,4.991-1.52,4.838,4.838,0,0,1-3.822-3.292.232.232,0,0,1-.008-.119.252.252,0,0,1,.293-.206,4.374,4.374,0,0,0,.814.078h.1a4.833,4.833,0,0,1-2.82-4.454.252.252,0,0,1,.375-.217,4.317,4.317,0,0,0,1.108.426,4.832,4.832,0,0,1-.792-5.869.238.238,0,0,1,.057-.068.254.254,0,0,1,.358.036,12.667,12.667,0,0,0,8.708,4.649h.011a.18.18,0,0,0,.133-.06.178.178,0,0,0,.044-.136,5.129,5.129,0,0,1,.116-1.778,4.677,4.677,0,0,1,3.151-3.371,5.174,5.174,0,0,1,1.529-.236,4.83,4.83,0,0,1,3.2,1.2.637.637,0,0,0,.413.158.667.667,0,0,0,.147-.017,8.924,8.924,0,0,0,2.361-.975.249.249,0,0,1,.2-.024.255.255,0,0,1,.168.318A4.832,4.832,0,0,1,121.91,70.9a8.845,8.845,0,0,0,1.539-.519h0l.011,0-.006,0a.252.252,0,0,1,.244.019A.256.256,0,0,1,123.761,70.749Z" transform="translate(-92.812 -57.711)" fill="#243546"/>
  </g>
</svg>
